<svg xmlns="http://www.w3.org/2000/svg" viewBox="0 0 353.74 63.09"><defs><style>.cls-1{fill:#e60013;}.cls-2{fill:#fff;}</style></defs><title>Logo svg white</title><g id="Layer_2" data-name="Layer 2"><g id="Layer_1-2" data-name="Layer 1"><path class="cls-1" d="M52.37,63h-38s-2.19-2.65,4-8.8c5.88-5.89,13.8-9.51,18.09-11,5.11-1.82,16-4.48,21.32.32,4.82,4.32,1.36,10.9-.24,13.5a21,21,0,0,1-5.11,6"/><path class="cls-1" d="M46.37,34C59,34.65,65.7,45.18,61.92,52.56A34.81,34.81,0,0,1,54.19,63H69.83c3,0,3.94-2.46,2.71-4.44S42.91,4.26,41.43,1.79s-4.19-2.22-5.68-.25c0,0-11.2,17.47-21.21,32.87,0,0,17.85-14.33,32.82-11.88,9.82,1.61-1,11.49-1,11.49"/><path class="cls-1" d="M45.82,34s5.15-6,2.12-7.74c-2.27-1.27-9.14-.5-18.28,4.61C20,36.27-4.41,54.71.69,63.09c0,0-.16-3.94,6.43-10.69,8.13-8.34,15.05-14.07,32.34-17.78A27.81,27.81,0,0,1,45.82,34"/><path class="cls-2" d="M345.49,24.17a3.68,3.68,0,1,1,3.7,3.76,3.66,3.66,0,0,1-3.7-3.76m3.7,4.52a4.52,4.52,0,1,0-4.6-4.52,4.51,4.51,0,0,0,4.6,4.52m-1-4.16h.91l1.37,2.25h.88l-1.48-2.29a1.33,1.33,0,0,0,1.34-1.43c0-1-.59-1.49-1.83-1.49h-2v5.21h.78Zm0-.67V22.24h1.08c.55,0,1.14.12,1.14.76,0,.81-.61.86-1.28.86Z"/><path class="cls-2" d="M114.47,41A11.51,11.51,0,0,0,118,38.89a7.3,7.3,0,0,0,2.13-5.47A8.22,8.22,0,0,0,118,27.75c-2.39-2.58-6.42-3.9-12.12-4H83.33V61h21a40.22,40.22,0,0,0,6.62-.5,14.56,14.56,0,0,0,5.28-1.86,12,12,0,0,0,3.31-2.93,9.25,9.25,0,0,0,2.08-5.91,8.37,8.37,0,0,0-1.82-5.46A10.42,10.42,0,0,0,114.47,41M92.58,30.24H102.8a21.9,21.9,0,0,1,5.55.58,3.34,3.34,0,0,1,2.53,3.43A3.34,3.34,0,0,1,109,37.52a11.49,11.49,0,0,1-4.95.91H92.58Zm16.19,23.6a13.68,13.68,0,0,1-4.76.66H92.58V44.59h11.59a14.51,14.51,0,0,1,4.68.63,4,4,0,0,1,3,4,4.55,4.55,0,0,1-3.08,4.63"/><rect class="cls-2" x="126.08" y="23.79" width="9.64" height="37.17"/><path class="cls-2" d="M216.31,41.54a23.7,23.7,0,0,0-7.94-2.7l-8-1.54a31.69,31.69,0,0,1-6-1.54,3.16,3.16,0,0,1-2.21-3,3.7,3.7,0,0,1,2.23-3.38,12.68,12.68,0,0,1,6-1.21,15,15,0,0,1,5.64.93,5.38,5.38,0,0,1,3.67,4.76H219a10.48,10.48,0,0,0-5.44-9A23.86,23.86,0,0,0,201,21.74q-8.82,0-13.34,3.31a9.91,9.91,0,0,0-4.54,8.29,8.57,8.57,0,0,0,4.7,8c1.84,1,5.19,2,10,2.86l4.91.87a25.94,25.94,0,0,1,6.34,1.74,3.13,3.13,0,0,1,2,2.85c0,2.1-1.37,3.54-4.08,4.32a21.1,21.1,0,0,1-5.57.6c-3.84,0-6.53-.76-8.1-2.3a6.75,6.75,0,0,1-1.74-3.8h-9.27a10.31,10.31,0,0,0,5.2,9.11Q192.77,61,201.84,61q8.9,0,13.77-3.36t4.86-8.46a8.43,8.43,0,0,0-4.16-7.59"/><polygon class="cls-2" points="259.11 23.79 221.47 23.79 221.47 30.37 235.43 30.37 235.43 60.95 245.21 60.95 245.21 30.37 259.11 30.37 259.11 23.79"/><path class="cls-2" d="M270.75,23.79,254.17,61h10.15l3.22-7.64h17.11l3,7.64h10.52L281.71,23.79Zm-.61,23.12,6-14.64,5.8,14.64Z"/><path class="cls-2" d="M333.43,45.18c3.14-.11,6.1-3.42,7.22-5.12a11,11,0,0,0,1.57-5.69,8.61,8.61,0,0,0-.87-3.9,11.89,11.89,0,0,0-2.4-3.13,12,12,0,0,0-4.46-2.6,25.78,25.78,0,0,0-7.52-.95H304.18V61h9.49V46.38h9.49L331.73,61H343Zm-3.85-5.56a15.14,15.14,0,0,1-4.91.6h-11v-10H325a13.42,13.42,0,0,1,4.73.65,4.46,4.46,0,0,1,2.8,4.54,4.08,4.08,0,0,1-2.91,4.19"/><path class="cls-2" d="M158.24,35.81l1.68-13.39A19.67,19.67,0,0,0,140.4,41.5c.24,0,10.82-.81,14.19-1.4s3.65-4.29,3.65-4.29"/><path class="cls-2" d="M165.27,40.1c3.37.59,13.95,1.39,14.18,1.4a19.67,19.67,0,0,0-19.53-19.08l1.7,13.39s.24,3.7,3.65,4.29"/><path class="cls-2" d="M165.27,43.26s-3.56.69-3.56,3.17c0,2.3-1.7,13.44-1.71,14.89-.21-1.47-1.86-12.59-1.86-14.89,0-2.48-3.55-3.17-3.55-3.17L140.4,41.51c0,.15,0,.29,0,.44a19.54,19.54,0,0,0,39.08,0c0-.15,0-.29,0-.44Z"/></g></g></svg>