<svg xmlns="http://www.w3.org/2000/svg" width="38.524" height="31.289" viewBox="0 0 38.524 31.289"><defs><style>.a{fill:#fff;}</style></defs><path class="a" d="M34.564,55.88c.024.342.024.685.024,1.027,0,10.438-7.944,22.465-22.464,22.465A22.311,22.311,0,0,1,0,75.827a16.331,16.331,0,0,0,1.907.1,15.812,15.812,0,0,0,9.8-3.373,7.909,7.909,0,0,1-7.382-5.476,9.957,9.957,0,0,0,1.491.122A8.35,8.35,0,0,0,7.9,66.929,7.9,7.9,0,0,1,1.564,59.18v-.1a7.951,7.951,0,0,0,3.569,1,7.907,7.907,0,0,1-2.444-10.56,22.442,22.442,0,0,0,16.28,8.262,8.913,8.913,0,0,1-.2-1.809,7.9,7.9,0,0,1,13.664-5.4,15.545,15.545,0,0,0,5.011-1.907,7.874,7.874,0,0,1-3.471,4.351A15.828,15.828,0,0,0,38.524,51.8a16.973,16.973,0,0,1-3.96,4.082Z" transform="translate(0 -48.082)"/></svg>